# xmcd CD database file
#
# Track frame offsets:
#	150
#	15837
#	26515
#	35771
#	43127
#	55111
#
# Disc length: 942 seconds
#
# Revision: 0
# Processed by: cddbd v1.5.1PL0 Copyright (c) Steve Scherf et al.
# Submitted via: CDex 1.51
#
DISCID=4103ac06
DTITLE=無題 - がらくた島 -GARAKUTA-TOU-
DYEAR=1900
DGENRE=未分類 (日本)
TTITLE0=あぽろ０号
TTITLE1=がらくた〜トゥ！
TTITLE2=Shore
TTITLE3=なにか出る。
TTITLE4=まりあちゃん。
TTITLE5=ここにあるボク
EXTD=
EXTT0=
EXTT1=
EXTT2=
EXTT3=
EXTT4=
EXTT5=
PLAYORDER=
